<?xml version="1.0" encoding="UTF-8" standalone="no"?>
<svg
   viewBox="0 0 607.1333 125.691"
   version="1.1"
   id="svg77"
   sodipodi:docname="kc-logo-white-text.svg"
   inkscape:version="1.2.1 (9c6d41e, 2022-07-14)"
   width="607.1333"
   height="125.691"
   xmlns:inkscape="http://www.inkscape.org/namespaces/inkscape"
   xmlns:sodipodi="http://sodipodi.sourceforge.net/DTD/sodipodi-0.dtd"
   xmlns="http://www.w3.org/2000/svg"
   xmlns:svg="http://www.w3.org/2000/svg"
   xmlns:rdf="http://www.w3.org/1999/02/22-rdf-syntax-ns#"
   xmlns:cc="http://creativecommons.org/ns#"
   xmlns:dc="http://purl.org/dc/elements/1.1/">
  <sodipodi:namedview
     id="namedview79"
     pagecolor="#000000"
     bordercolor="#666666"
     borderopacity="1.0"
     inkscape:showpageshadow="2"
     inkscape:pageopacity="0"
     inkscape:pagecheckerboard="0"
     inkscape:deskcolor="#d1d1d1"
     showgrid="false"
     inkscape:zoom="2.785704"
     inkscape:cx="287.53952"
     inkscape:cy="60.666891"
     inkscape:window-width="2337"
     inkscape:window-height="1342"
     inkscape:window-x="2240"
     inkscape:window-y="25"
     inkscape:window-maximized="0"
     inkscape:current-layer="svg77"
     showborder="true" />
  <defs
     id="defs9">
    <style
       id="style2">.cls-1{fill:url(#linear-gradient);}.cls-2{fill:#fff;}</style>
    <linearGradient
       id="linear-gradient"
       x1="133.27"
       y1="29.35"
       x2="12.35"
       y2="99.160004"
       gradientUnits="userSpaceOnUse">
      <stop
         offset="0"
         stop-color="#1da0c4"
         id="stop4" />
      <stop
         offset="1"
         stop-color="#0382a9"
         id="stop6" />
    </linearGradient>
  </defs>
  <title
     id="title11">Asset 12</title>
  <g
     id="g505"
     transform="translate(60.012558,12.399422)">
    <path
       class="cls-1"
       d="m 9.14,92.25 a 23.22,23.22 0 0 0 15.1,6.63 h 105.33 c 0.92,0 22.54,-0.37 23.05,-27.21 C 153,51 134.34,42.83 134.15,42.75 l -0.64,-0.28 V 41.78 C 134.37,24.57 119.74,4.54 94.6,2.18 c -25.53,-2.4 -37.88,20 -38,20.21 L 56.03,23.45 55.1,22.7 C 49.24,18.01 43.74,16.52 39.1,16.52 A 22.64,22.64 0 0 0 25.7,21 c -11,8.65 -8,22.92 -7.95,23.07 l 0.18,0.84 -0.8,0.31 A 23.58,23.58 0 0 0 9.69,50.44 C 4.76,55.51 2.18,62.09 2,70.05 c -0.19,9.7 2.21,17.16 7.14,22.2 z"
       id="path13"
       style="fill:url(#linear-gradient)" />
    <path
       class="cls-2"
       d="m 135.57,41.21 c 0.5,-18 -14.75,-38.58 -40.74,-41 C 71.18,-2 58.31,15.93 55.47,20.44 38.83,7.93 24.58,19.37 24.47,19.44 14.08,27.6 15.18,40.36 15.67,43.68 12.47,45.26 0.38,52.26 0,70 -0.21,80.25 2.38,88.2 7.7,93.63 a 24.94,24.94 0 0 0 16.53,7.24 h 105.34 c 0.24,0 24.5,-0.33 25.05,-29.18 C 155,52 139,42.91 135.57,41.21 Z m -6,57.67 H 24.24 A 23.22,23.22 0 0 1 9.14,92.25 c -4.93,-5 -7.33,-12.5 -7.13,-22.2 0.17,-8 2.75,-14.54 7.68,-19.58 a 23.58,23.58 0 0 1 7.44,-5.22 l 0.8,-0.31 -0.18,-0.84 c 0,-0.15 -3.06,-14.42 8,-23.07 a 22.64,22.64 0 0 1 13.44,-4.51 c 4.63,0 10.13,1.49 16,6.18 l 0.93,0.75 0.57,-1.06 c 0.13,-0.22 12.48,-22.61 38,-20.21 25.14,2.36 39.77,22.39 38.91,39.6 v 0.69 l 0.64,0.28 c 0.19,0.08 18.87,8.26 18.47,28.92 -0.6,26.84 -22.22,27.21 -23.14,27.21 z"
       id="path15" />
    <path
       class="cls-2"
       d="m 120.37,45 4.37,-2.09 -1.27,-8.14 -4.7,-0.61 a 27.8,27.8 0 0 0 -2,-4.46 l 2.55,-4.18 -5.44,-6.12 -4.29,2.08 A 28.32,28.32 0 0 0 105.5,18.87 L 105.35,14 97.49,11.87 95,15.93 A 27.36,27.36 0 0 0 90.13,16 l -2.69,-4 -7.74,2.49 0.14,4.77 a 27.51,27.51 0 0 0 -2.93,1.87 L 72.57,19 l -5.45,6.13 2.47,4.05 a 27.7,27.7 0 0 0 -2.16,4.45 l -4.77,0.61 -1.27,8.14 4.21,2 a 28.17,28.17 0 0 0 0.58,5 l -3.63,3.12 3.31,7.5 4.6,-0.63 a 27.49,27.49 0 0 0 3.18,3.84 l -1.37,4.62 6.82,4.49 3.53,-3.07 a 27.86,27.86 0 0 0 4.73,1.47 l 1.33,4.64 h 8.14 l 1.31,-4.53 a 27.11,27.11 0 0 0 3.33,-0.85 c 0.48,-0.16 1,-0.33 1.42,-0.52 l 3.62,3.16 6.83,-4.49 -1.33,-4.51 a 26.61,26.61 0 0 0 3.21,-3.75 l 4.77,0.66 3.3,-7.53 -3.6,-3.09 A 27.43,27.43 0 0 0 120.37,45 Z M 93.06,63.62 A 19.12,19.12 0 1 1 112,44.5 19,19 0 0 1 93.06,63.62 Z"
       id="path17" />
    <path
       class="cls-2"
       d="m 90.73,44.54 a 2.38,2.38 0 1 1 2.52,2.26 2.4,2.4 0 0 1 -2.52,-2.26 z"
       id="path19" />
    <path
       class="cls-2"
       d="m 102.47,47.8 3.06,0.05 0.59,-3.2 L 103,43.5 A 10,10 0 0 0 101.51,39 l 1.89,-2.37 -2.13,-2.44 -2.76,1.73 A 9.88,9.88 0 0 0 94,34.31 l -0.68,-2.94 -3.2,0.2 -0.35,3.27 A 10,10 0 0 0 86.29,37 l -2.64,-1.5 -2,2.55 2.2,2.49 a 10.12,10.12 0 0 0 -0.73,4.46 2.11,2.11 0 0 1 0,0.25 l -2.82,1.23 0.74,3.16 3.37,-0.23 a 10,10 0 0 0 3.16,3.41 l -0.8,3.06 2.92,1.35 1.91,-2.85 A 9.47,9.47 0 0 0 93.67,54.47 9.88,9.88 0 0 0 96.2,54 l 1.89,2.51 2.85,-1.5 -1,-3.25 a 10.19,10.19 0 0 0 2.53,-3.96 z M 87.09,44.74 a 6,6 0 1 1 6.36,5.7 6.06,6.06 0 0 1 -6.36,-5.7 z"
       id="path21" />
    <path
       d="M 206.52,55.51 194.78,36 191.05,40.14 V 55.51 H 180.13 V 8.71 h 10.92 V 25.8 L 205.5,8.71 h 13 L 202,27.36 219.64,55.51 Z"
       id="path23"
       style="fill:#ffffff" />
    <path
       d="M 226.19,55.51 V 8.71 h 30.32 v 8.75 h -19.4 V 27 h 18.31 v 8.75 h -18.31 v 10.88 h 20 v 8.88 z"
       id="path25"
       style="fill:#ffffff" />
    <path
       d="m 289.54,36.59 v 18.92 h -11 V 36.59 L 262.27,8.71 h 12.21 l 9.57,18.65 9.56,-18.65 h 12.21 z"
       id="path27"
       style="fill:#ffffff" />
    <path
       d="m 332,56.33 c -13.77,0 -24.55,-9.09 -24.55,-24.15 C 307.45,17.12 318.37,8 332,8 c 9.64,0 14.86,4 16.08,5.29 l -3.39,9.09 c -0.88,-1.15 -5.9,-4.88 -12.08,-4.88 -7.93,0 -14,5.29 -14,14.44 0,9.15 6.38,14.39 14,14.39 a 17.24,17.24 0 0 0 12.62,-5 L 348.9,50 c -2.38,2.39 -7.33,6.33 -16.9,6.33 z"
       id="path29"
       style="fill:#ffffff" />
    <path
       d="m 377.72,56.33 c -13.9,0 -24.83,-9 -24.83,-24.15 0,-15.15 10.93,-24.18 24.83,-24.18 13.9,0 24.83,9.09 24.83,24.22 0,15.13 -10.92,24.11 -24.83,24.11 z m 0,-39 c -7.8,0 -13.7,5.63 -13.7,14.59 0,8.96 5.9,14.65 13.7,14.65 7.8,0 13.71,-5.7 13.71,-14.65 0,-8.95 -5.91,-14.6 -13.71,-14.6 z"
       id="path31"
       style="fill:#ffffff" />
    <path
       d="m 436.4,55.51 -9.84,-17.9 h -3.46 v 17.9 h -11 V 8.71 h 16.82 c 9,0 17.51,3.8 17.51,14 0,8.89 -5.7,12.35 -9.16,13.43 l 11.87,19.33 z m -9,-38.32 H 423 v 12 h 4.34 c 4.07,0 8,-1.22 8,-6 0,-4.78 -3.9,-6 -7.97,-6 z"
       id="path33"
       style="fill:#ffffff" />
    <path
       d="M 456.2,55.51 V 8.71 h 30.32 v 8.75 h -19.4 V 27 h 18.32 v 8.75 h -18.32 v 10.88 h 20 v 8.88 z"
       id="path35"
       style="fill:#ffffff" />
    <path
       d="m 193.16,92.6 -2,-4.84 h -7.7 l -2,4.84 h -1.33 L 187,76.41 h 0.71 l 6.9,16.19 z m -5.85,-14.27 -3.37,8.26 h 6.74 z"
       id="path37"
       style="fill:#ffffff" />
    <path
       d="m 214.76,92.63 h -1.17 l -4.5,-14.35 -4.46,14.35 h -1.17 l -4.73,-16.17 h 1.33 l 4.05,14 4.33,-14 h 1.33 l 4.33,14 4.05,-14 h 1.34 z"
       id="path39"
       style="fill:#ffffff" />
    <path
       d="M 229.91,92.88 A 5.53,5.53 0 0 1 225,90 l 1,-0.7 a 4.73,4.73 0 0 0 4.07,2.5 c 2.08,0 3.77,-1.28 3.77,-3.39 0,-2.11 -2.15,-2.9 -3.09,-3.28 a 25.55,25.55 0 0 1 -2.64,-1.17 4.18,4.18 0 0 1 -2.34,-3.74 c 0,-2.34 2,-4 4.75,-4 a 5.08,5.08 0 0 1 4.21,2.11 l -0.89,0.77 a 4.06,4.06 0 0 0 -3.42,-1.75 c -1.87,0 -3.37,1 -3.37,2.8 0,1.8 1.27,2.55 2.41,3 1.14,0.45 3,1.24 3.33,1.45 a 4.27,4.27 0 0 1 2.34,3.74 c -0.04,2.51 -2.08,4.54 -5.22,4.54 z"
       id="path41"
       style="fill:#ffffff" />
    <path
       d="m 259.3,92.88 a 8.33,8.33 0 1 1 5.85,-14.32 l -0.82,0.94 a 6.56,6.56 0 0 0 -5,-2.13 c -4,0 -6.79,2.92 -6.79,7.14 0,4.22 2.81,7.18 6.79,7.18 a 6.77,6.77 0 0 0 5.15,-2.13 l 0.82,0.82 a 7.72,7.72 0 0 1 -6,2.5 z"
       id="path43"
       style="fill:#ffffff" />
    <path
       d="M 272.51,92.6 V 76.46 h 1.22 V 92.6 Z"
       id="path45"
       style="fill:#ffffff" />
    <path
       d="m 286.76,92.84 a 5.64,5.64 0 1 1 5.57,-5.62 5.45,5.45 0 0 1 -5.57,5.62 z m 0,-10.23 a 4.57,4.57 0 1 0 4.29,4.56 4.25,4.25 0 0 0 -4.29,-4.56 z"
       id="path47"
       style="fill:#ffffff" />
    <path
       d="m 306.83,92.6 v -1.75 a 3.82,3.82 0 0 1 -3.5,2 c -3,0 -3.75,-2 -3.75,-4.64 v -6.46 h 1.22 v 6.64 c 0,1.64 0.3,3.39 2.69,3.39 2.39,0 3.34,-2.1 3.34,-4.21 v -5.82 h 1.22 V 92.6 Z"
       id="path49"
       style="fill:#ffffff" />
    <path
       d="m 320.75,81.56 a 4.68,4.68 0 0 1 4.08,2.22 v -7.32 h 1.24 V 92.6 h -1.24 v -2 a 4.48,4.48 0 0 1 -4,2.25 c -3.28,0 -5.38,-2.46 -5.38,-5.67 0,-3.21 2.07,-5.62 5.3,-5.62 z m 0.05,10.18 c 2.64,0 4.1,-2.06 4.1,-4.57 0,-2.51 -1.46,-4.56 -4.1,-4.56 -2.64,0 -4.09,2 -4.09,4.56 0,2.56 1.47,4.57 4.09,4.57 z"
       id="path51"
       style="fill:#ffffff" />
    <path
       d="M 348,92.88 A 5.55,5.55 0 0 1 343,90 l 1,-0.7 a 4.73,4.73 0 0 0 4.07,2.5 c 2.08,0 3.77,-1.28 3.77,-3.39 0,-2.11 -2.16,-2.9 -3.09,-3.28 a 26.81,26.81 0 0 1 -2.65,-1.17 4.19,4.19 0 0 1 -2.34,-3.74 c 0,-2.34 2,-4 4.75,-4 a 5.1,5.1 0 0 1 4.22,2.11 l -0.89,0.77 a 4.06,4.06 0 0 0 -3.42,-1.75 c -1.87,0 -3.37,1 -3.37,2.8 0,1.8 1.26,2.55 2.41,3 1.15,0.45 2.95,1.24 3.32,1.45 a 4.25,4.25 0 0 1 2.34,3.74 c 0.01,2.51 -2.02,4.54 -5.12,4.54 z"
       id="path53"
       style="fill:#ffffff" />
    <path
       d="m 366.05,92.84 a 4.65,4.65 0 0 1 -4.1,-2.27 v 6.48 h -1.22 V 81.75 H 362 v 2.1 a 4.56,4.56 0 0 1 4,-2.29 c 3.35,0 5.38,2.45 5.38,5.66 0,3.21 -2.1,5.62 -5.33,5.62 z M 366,82.61 c -2.65,0 -4.1,2.06 -4.1,4.61 0,2.55 1.45,4.52 4.1,4.52 2.65,0 4.09,-2 4.09,-4.52 0,-2.52 -1.47,-4.61 -4.09,-4.61 z"
       id="path55"
       style="fill:#ffffff" />
    <path
       d="m 388,87.46 h -8.82 c 0.11,2.57 1.56,4.28 4,4.28 A 5.54,5.54 0 0 0 387,90.33 l 0.58,0.87 a 5.92,5.92 0 0 1 -4.52,1.64 c -3.16,0 -5.19,-2.34 -5.19,-5.67 a 5.32,5.32 0 0 1 5.26,-5.61 4.84,4.84 0 0 1 4.92,5.08 6.82,6.82 0 0 1 -0.05,0.82 z m -4.92,-4.85 a 3.86,3.86 0 0 0 -3.86,3.79 h 7.61 a 3.77,3.77 0 0 0 -3.71,-3.79 z"
       id="path57"
       style="fill:#ffffff" />
    <path
       d="m 400,92.84 a 5.38,5.38 0 0 1 -5.31,-5.67 5.46,5.46 0 0 1 5.42,-5.61 5.07,5.07 0 0 1 4.29,1.87 l -0.77,0.82 A 4.28,4.28 0 0 0 400,82.66 4.19,4.19 0 0 0 395.9,87.1 c 0,2.7 1.69,4.64 4.14,4.64 a 4.6,4.6 0 0 0 3.63,-1.59 l 0.7,0.82 A 5.21,5.21 0 0 1 400,92.84 Z"
       id="path59"
       style="fill:#ffffff" />
    <path
       d="m 411.87,78.89 a 1,1 0 1 1 1,-1 1,1 0 0 1 -1,1 z m -0.6,13.71 V 81.75 h 1.21 V 92.6 Z"
       id="path61"
       style="fill:#ffffff" />
    <path
       d="m 427,92.6 v -1.52 a 4.73,4.73 0 0 1 -3.68,1.76 3.37,3.37 0 0 1 -3.63,-3.28 c 0,-1.87 1.41,-3.16 4.33,-3.28 l 3,-0.11 v -0.59 a 2.8,2.8 0 0 0 -3.05,-3 5.84,5.84 0 0 0 -3.2,0.94 l -0.47,-0.89 a 6.63,6.63 0 0 1 3.63,-1.1 c 3,0 4.33,1.73 4.33,4.61 v 6.46 z m -3,-5.31 c -2.27,0.12 -3,1.1 -3,2.27 0,1.17 0.89,2.22 2.65,2.22 a 4.18,4.18 0 0 0 3.44,-2 V 87.1 Z"
       id="path63"
       style="fill:#ffffff" />
    <path
       d="M 436.34,92.6 V 76.46 h 1.22 V 92.6 Z"
       id="path65"
       style="fill:#ffffff" />
    <path
       d="m 446.59,78.89 a 1,1 0 1 1 1,-1 1,1 0 0 1 -1,1 z M 446,92.6 V 81.75 h 1.22 V 92.6 Z"
       id="path67"
       style="fill:#ffffff" />
    <path
       d="m 458.29,92.84 a 4.42,4.42 0 0 1 -4,-2.11 l 0.87,-0.7 a 3.72,3.72 0 0 0 3.14,1.71 c 1.35,0 2.55,-0.66 2.55,-2.06 0,-1.4 -1.95,-1.9 -2.88,-2.22 -0.93,-0.32 -3,-1 -3,-3 0,-2 1.7,-2.9 3.3,-2.9 a 4.14,4.14 0 0 1 3.41,1.52 l -0.75,0.75 a 3.31,3.31 0 0 0 -2.71,-1.24 c -1.22,0 -2.08,0.61 -2.08,1.73 0,1.12 1.17,1.61 2.5,2.08 1.33,0.47 3.39,1.17 3.39,3.23 0,2.06 -1.73,3.21 -3.74,3.21 z"
       id="path69"
       style="fill:#ffffff" />
    <path
       d="m 472.11,92.84 a 2.15,2.15 0 0 1 -2.06,-1.17 c -0.37,-0.73 -0.39,-1.52 -0.39,-3.28 v -5.5 H 468 v -1.1 h 1.64 v -3.46 h 1.24 v 3.46 h 2.74 v 1.1 h -2.77 v 6.23 c 0,1.19 0.14,2.62 1.6,2.62 a 2.29,2.29 0 0 0 1.17,-0.31 l 0.11,1.06 a 3.25,3.25 0 0 1 -1.62,0.35 z"
       id="path71"
       style="fill:#ffffff" />
    <path
       d="m 483.32,92.84 a 4.39,4.39 0 0 1 -3.95,-2.11 l 0.86,-0.7 a 3.72,3.72 0 0 0 3.14,1.71 c 1.35,0 2.55,-0.66 2.55,-2.06 0,-1.4 -1.92,-1.9 -2.92,-2.22 -1,-0.32 -3,-1 -3,-3 a 3,3 0 0 1 3.3,-2.9 4.14,4.14 0 0 1 3.41,1.52 l -0.75,0.75 a 3.31,3.31 0 0 0 -2.71,-1.24 c -1.22,0 -2.08,0.61 -2.08,1.73 0,1.12 1.17,1.61 2.5,2.08 1.33,0.47 3.39,1.17 3.39,3.23 0,2.06 -1.73,3.21 -3.74,3.21 z"
       id="path73"
       style="fill:#ffffff" />
  </g>
  <metadata
     id="metadata302">
    <rdf:RDF>
      <cc:Work
         rdf:about="">
        <dc:title>Asset 12</dc:title>
      </cc:Work>
    </rdf:RDF>
  </metadata>
</svg>
